<svg xmlns="http://www.w3.org/2000/svg" xmlns:xlink="http://www.w3.org/1999/xlink" width="467.292" height="316.587" viewBox="0 0 467.292 316.587">
  <defs>
    <linearGradient id="linear-gradient" x1="0.256" x2="0.975" y2="1" gradientUnits="objectBoundingBox">
      <stop offset="0" stop-color="#9c43c5"/>
      <stop offset="1" stop-color="#4e2263"/>
    </linearGradient>
    <linearGradient id="linear-gradient-2" x1="0.287" x2="1" y2="0.964" gradientUnits="objectBoundingBox">
      <stop offset="0" stop-color="#7e4399"/>
      <stop offset="1" stop-color="#3f224d"/>
    </linearGradient>
    <linearGradient id="linear-gradient-3" x1="0.713" y1="0.015" x2="0.029" y2="0.97" xlink:href="#linear-gradient-2"/>
    <linearGradient id="linear-gradient-4" x1="0.024" y1="0.5" x2="1" y2="0.5" gradientUnits="objectBoundingBox">
      <stop offset="0" stop-color="#7e4399"/>
      <stop offset="1" stop-color="#558bc8"/>
    </linearGradient>
  </defs>
  <g id="Group_19" data-name="Group 19" transform="translate(-726 -239.107)">
    <g id="Group_14" data-name="Group 14" transform="translate(-133 -654.313)">
      <path id="Path_15" data-name="Path 15" d="M119.134,244.515l-224.711-54.787Z" transform="translate(964.91 965.491)" fill="url(#linear-gradient)"/>
      <g id="book" transform="translate(859 952.108)">
        <g id="vector-open-book" transform="translate(0 0)">
          <path id="Path_14" data-name="Path 14" d="M276.3-384.9c-.4-.042-.916,44.8-.916,44.8s.135,155.13-2.575,155.6c-1.89.337-12.215,1.207-14.037,1.477a33.644,33.644,0,0,0-6.209,1.485c-.742.4-2.227.067-4.926-1.282-14.78-7.22-83.278-24.227-170.874-42.38-23.89-4.994-22.945-4.724-22.945-5.871,0-1.08.472-2.7,9.448-32.258,8.3-27.332,24.97-82.2,37.117-122.149,8.436-27.737,10.663-34.35,12.552-37.117.994-1.453,149.206,35.085,162.983,37.746.458.089.437.039.436,0,.022-.764-163.168-42.024-166.389-42.065a9.7,9.7,0,0,0-7.693,3.1c-.877.945-32.6,101.161-58.645,185.18C42.215-233.9,41-228.973,41-227.556c0,3.712,2.092,6.209,6.276,7.423,4.252,1.215,21.965,6,22.365,6.624.55.811,176.784,39.941,176.177,38.929-.2-.337,1.417.27,3.577,1.35,5.871,2.969,12.485,4.117,23.417,4.117h2.51s-1.417-19.857-1.246-47.415C274.47-280.357,276.894-385.44,276.3-384.9Z" transform="translate(-41 426.925)" fill="url(#linear-gradient-2)"/>
        </g>
        <g id="vector-open-book-2" data-name="vector-open-book" transform="translate(229.552 0)">
          <path id="Path_14-2" data-name="Path 14" d="M45.883-384.853c.2.2-3.719,199.685.2,200.36,1.89.337,12.215,1.207,14.037,1.477a33.644,33.644,0,0,1,6.209,1.485c.742.4,2.227.067,4.926-1.282,14.779-7.221,83.277-24.227,170.873-42.381,23.89-4.994,22.945-4.724,22.945-5.871,0-1.08-.472-2.7-9.448-32.258-8.3-27.332-24.97-82.2-37.117-122.149-8.436-27.737-10.663-34.35-12.552-37.117-.989-1.446-160.068,37.828-160.068,37.828v-.093c-.022-.764,159.817-42.014,163.037-42.054a9.7,9.7,0,0,1,7.693,3.1c.877.945,32.6,101.161,58.645,185.18,1.417,4.724,2.632,9.65,2.632,11.068,0,3.712-2.092,6.209-6.276,7.423-4.252,1.215-21.965,6-22.365,6.624-.55.811-176.785,39.941-176.177,38.929.2-.337-1.417.27-3.577,1.35-5.871,2.969-12.485,4.117-23.417,4.117-.3,0-1.253.128-1.663-.319C34.413-179.986,45.028-385.642,45.883-384.853Z" transform="translate(-40.15 426.925)" fill="url(#linear-gradient-3)"/>
        </g>
      </g>
    </g>
    <rect id="Rectangle_61" data-name="Rectangle 61" width="22" height="9" transform="translate(972 329)" fill="#fff"/>
    <rect id="Rectangle_60" data-name="Rectangle 60" width="21" height="9" transform="translate(928 329)" fill="#fff"/>
    <path id="Path_11" data-name="Path 11" d="M169.712-415.024c-1.114,37.272-13.876,73.379-35.7,100.928-4.659,5.874-17.066,18.332-22.89,22.941-15.344,12.2-33.93,22.08-54.541,28.916-6.786,2.279-7.191,2.482-6.786,3.494.253.608,1.874,5.672,3.6,11.242s3.292,10.28,3.494,10.483c.354.354,13.876-4.153,21.32-7.141a235.121,235.121,0,0,0,26.536-13.167c35.651-21.32,60.668-51.35,75.861-90.952.456-1.114,1.013-1.924,1.215-1.823a38.306,38.306,0,0,1,2.886,6.077c10.179,24.916,24,45.223,43.248,63.353,18.636,17.623,42.842,31.651,70.29,40.766,2.857.958,7.352,2.262,7.352,2.262s3.72-9.35,4.226-11.021,3.259-8.561,3.31-11.177l-10.584-3.815c-2.937-.911-6.229-2.076-7.343-2.583s-2.481-1.064-3.038-1.266c-2.684-1.013-19.345-9.622-24.308-12.559-1.671-1.013-4.355-2.735-5.925-3.9-1.57-1.114-4.1-2.887-5.571-3.95a38.25,38.25,0,0,1-3.95-3.039c-.709-.608-2.633-2.279-4.3-3.646-1.671-1.418-5.267-4.76-8-7.546-21.421-21.573-36.158-50.236-42.842-83.1a138.9,138.9,0,0,1-3.241-29.828l-.1-9.926h-23.9Zm20.459,2.684a140.561,140.561,0,0,0,2.279,22.231c.456,2.38.962,5.469,1.215,6.887,1.013,6.128,4.963,19.7,8.1,27.8,11.6,30.486,29.575,54.186,54.946,72.569,3.089,2.228,5.824,4.153,6.077,4.254.3.1,2.127,1.266,4.051,2.532,3.747,2.532,16.914,8.71,17.775,9.217.861.456,19.875,7.985,23.42,8.9l.513.235-5.5,15.227c-.405.405-15.8-5.571-21.624-8.1-2.178-.962-5.773-2.633-8-3.646-4.558-2.076-23.346-13.622-29.524-18.231a169.546,169.546,0,0,1-43.146-48.21,229.279,229.279,0,0,1-10.888-21.27c-.709-1.823-1.62-4-2.026-4.811-.81-1.924-3.95-10.685-5.115-14.534l-.861-2.887-2.633,7.7c-17.218,50.641-52.211,87.559-102.4,108.068-3.849,1.519-9.217,3.6-11.951,4.507l-4.963,1.671-.506-1.368c-1.165-3.038-4-12.154-4-12.812,0-.456,1.874-1.367,4.963-2.431,51.654-17.826,87.1-52.92,103.764-102.8a192.91,192.91,0,0,0,9.521-51.7c.2-3.748.405-7.141.557-7.495.152-.507,1.975-.608,7.9-.507l7.748.152Z" transform="translate(778.708 664.107)" fill="url(#linear-gradient-4)"/>
  </g>
</svg>
