<svg xmlns="http://www.w3.org/2000/svg" width="25" height="25" viewBox="0 0 25 25">
  <g id="Group_39" data-name="Group 39" transform="translate(-540.5 -1800.5)">
    <g id="clock_time" transform="translate(537 1797)">
      <g id="Group_17" data-name="Group 17">
        <path id="Path_21" data-name="Path 21" d="M16,28.5A12.5,12.5,0,1,1,28.5,16,12.514,12.514,0,0,1,16,28.5Zm0-24A11.5,11.5,0,1,0,27.5,16,11.513,11.513,0,0,0,16,4.5Z" fill="#7e4399"/>
      </g>
      <g id="Group_36" data-name="Group 36">
        <g id="Group_20" data-name="Group 20">
          <g id="Group_18" data-name="Group 18">
            <path id="Path_22" data-name="Path 22" d="M20.75,8.27a.493.493,0,0,1-.5-.5.472.472,0,0,1,.149-.35.5.5,0,0,1,.7,0,.5.5,0,0,1-.349.85Z" fill="#7e4399"/>
          </g>
          <g id="Group_19" data-name="Group 19">
            <path id="Path_23" data-name="Path 23" d="M11.25,24.729a.517.517,0,0,1-.351-.149.5.5,0,0,1-.149-.351.538.538,0,0,1,.14-.359.532.532,0,0,1,.71,0,.5.5,0,0,1,.15.359.538.538,0,0,1-.141.351A.548.548,0,0,1,11.25,24.729Z" fill="#7e4399"/>
          </g>
        </g>
        <g id="Group_23" data-name="Group 23">
          <g id="Group_21" data-name="Group 21">
            <path id="Path_24" data-name="Path 24" d="M24.229,11.75a.5.5,0,0,1-.35-.141.5.5,0,1,1,.7-.71.513.513,0,0,1,.149.351.511.511,0,0,1-.5.5Z" fill="#7e4399"/>
          </g>
          <g id="Group_22" data-name="Group 22">
            <path id="Path_25" data-name="Path 25" d="M7.77,21.25a.514.514,0,0,1-.35-.141.535.535,0,0,1-.15-.359.5.5,0,0,1,.861-.351.509.509,0,0,1,0,.7A.5.5,0,0,1,7.77,21.25Z" fill="#7e4399"/>
          </g>
        </g>
        <g id="Group_26" data-name="Group 26">
          <g id="Group_24" data-name="Group 24">
            <path id="Path_26" data-name="Path 26" d="M25.5,16.5a.5.5,0,0,1-.351-.851A.5.5,0,0,1,26,16a.5.5,0,0,1-.141.35A.5.5,0,0,1,25.5,16.5Z" fill="#7e4399"/>
          </g>
          <g id="Group_25" data-name="Group 25">
            <path id="Path_27" data-name="Path 27" d="M6.5,16.5a.5.5,0,0,1-.351-.851A.5.5,0,0,1,7,16a.5.5,0,0,1-.141.35A.5.5,0,0,1,6.5,16.5Z" fill="#7e4399"/>
          </g>
        </g>
        <g id="Group_29" data-name="Group 29">
          <g id="Group_27" data-name="Group 27">
            <path id="Path_28" data-name="Path 28" d="M24.229,21.25a.534.534,0,0,1-.359-.141.541.541,0,0,1-.141-.359.5.5,0,0,1,.851-.351.513.513,0,0,1,.149.351.511.511,0,0,1-.5.5Z" fill="#7e4399"/>
          </g>
          <g id="Group_28" data-name="Group 28">
            <path id="Path_29" data-name="Path 29" d="M7.77,11.75a.514.514,0,0,1-.35-.141.535.535,0,0,1-.15-.359.5.5,0,0,1,.861-.351.509.509,0,0,1,0,.7A.513.513,0,0,1,7.77,11.75Z" fill="#7e4399"/>
          </g>
        </g>
        <g id="Group_32" data-name="Group 32">
          <g id="Group_30" data-name="Group 30">
            <path id="Path_30" data-name="Path 30" d="M20.75,24.729a.5.5,0,0,1-.351-.14.524.524,0,0,1-.149-.36.538.538,0,0,1,.14-.359.522.522,0,0,1,.71,0,.5.5,0,0,1,.15.359.538.538,0,0,1-.141.351A.5.5,0,0,1,20.75,24.729Z" fill="#7e4399"/>
          </g>
          <g id="Group_31" data-name="Group 31">
            <path id="Path_31" data-name="Path 31" d="M11.25,8.27a.5.5,0,0,1-.351-.85.511.511,0,0,1,.7-.01.5.5,0,0,1,.15.359.47.47,0,0,1-.149.351A.485.485,0,0,1,11.25,8.27Z" fill="#7e4399"/>
          </g>
        </g>
        <g id="Group_35" data-name="Group 35">
          <g id="Group_33" data-name="Group 33">
            <path id="Path_32" data-name="Path 32" d="M16,26a.518.518,0,0,1-.351-.141A.524.524,0,0,1,15.5,25.5a.5.5,0,0,1,.85-.351A.5.5,0,0,1,16,26Z" fill="#7e4399"/>
          </g>
          <g id="Group_34" data-name="Group 34">
            <path id="Path_33" data-name="Path 33" d="M16,7a.518.518,0,0,1-.351-.141A.507.507,0,0,1,15.5,6.5a.485.485,0,0,1,.14-.351.506.506,0,0,1,.71,0,.473.473,0,0,1,.15.351.5.5,0,0,1-.141.35A.5.5,0,0,1,16,7Z" fill="#7e4399"/>
          </g>
        </g>
      </g>
      <g id="Group_38" data-name="Group 38">
        <g id="Group_37" data-name="Group 37">
          <path id="Path_34" data-name="Path 34" d="M22.364,9.636a.5.5,0,0,0-.707,0l-5.413,5.413a.975.975,0,0,1,.707.707l5.413-5.413A.5.5,0,0,0,22.364,9.636Z" fill="#7e4399"/>
          <path id="Path_35" data-name="Path 35" d="M15.756,15.049l-6.12-6.12a.5.5,0,0,0-.707.707l6.12,6.12A.975.975,0,0,1,15.756,15.049Z" fill="#7e4399"/>
        </g>
        <path id="Path_36" data-name="Path 36" d="M16,17.5A1.5,1.5,0,1,1,17.5,16,1.5,1.5,0,0,1,16,17.5Zm0-2a.5.5,0,1,0,.5.5A.5.5,0,0,0,16,15.5Z" fill="#7e4399"/>
      </g>
    </g>
  </g>
</svg>
