<svg xmlns="http://www.w3.org/2000/svg" width="338.406" height="262.407" viewBox="0 0 338.406 262.407">
  <g id="Group_43" data-name="Group 43" transform="translate(-578.492 -1825.868)">
    <g id="Group_42" data-name="Group 42" transform="translate(0 459)">
      <g id="Layer_11" data-name="Layer 11" transform="translate(735.01 1360.857)">
        <g id="_Group_" data-name="&lt;Group&gt;" transform="translate(0.991 42.717)">
          <path id="_Path_" data-name="&lt;Path&gt;" d="M42.386,52.042V48.247a30.7,30.7,0,0,1,4.054-14.662,25.7,25.7,0,0,1,5.52-6.67,26.334,26.334,0,0,1,12.3-6.008,26.017,26.017,0,0,1,20.5,4.628,31.623,31.623,0,0,1,8.251,8.912c.977,1.524,1.9,3.047,2.875,4.628a41.34,41.34,0,0,1,5.318,17.68,55.772,55.772,0,0,1-.575,10.953c-.6,4.255-1.495,8.423-2.5,12.563-1.495,6.066-2.875,12.1-4.542,18.169-1.811,7.245-3.45,14.575-5,21.878v.259h-.46c-9.286-1.754-18.6-3.191-27.944-4.514-6.267-.891-12.592-1.725-18.859-2.875a83.367,83.367,0,0,1-11.5-2.875,41.024,41.024,0,0,1-14.949-8.625,44.243,44.243,0,0,1-5.318-5.75c-1.351-1.782-2.7-3.565-3.91-5.433A27.34,27.34,0,0,1,3.891,62.995a26.018,26.018,0,0,1,6.066-7.82,26.794,26.794,0,0,1,5.75-3.967A26.535,26.535,0,0,1,27.58,48.477a33.348,33.348,0,0,1,14.173,3.277Z" transform="translate(-0.991 -20.421)" fill="none" stroke="#000" stroke-linecap="round" stroke-linejoin="round" stroke-width="5"/>
          <path id="_Path_2" data-name="&lt;Path&gt;" d="M14,65.227A23.66,23.66,0,0,1,4.48,43.608,22.654,22.654,0,0,1,7.125,35.53" transform="translate(5.291 7.907)" fill="none" stroke="#000" stroke-linecap="round" stroke-linejoin="round" stroke-width="5"/>
        </g>
        <g id="_Group_2" data-name="&lt;Group&gt;" transform="translate(59.376 8.529)">
          <path id="_Path_3" data-name="&lt;Path&gt;" d="M21.3,36.62A32.6,32.6,0,0,1,40.935,10.746a30.445,30.445,0,0,1,31.94,5.75,38.983,38.983,0,0,1,9.774,14.058c0,.23.2.46.287.719,1.006-1.179,1.955-2.329,2.875-3.392a35.849,35.849,0,0,1,15.122-9.717,30.646,30.646,0,0,1,39.587,23,37.373,37.373,0,0,1,.172,14.374c-.345,2.1-.69,4.2-1.179,6.267a49.62,49.62,0,0,1-9.228,19.951,65.489,65.489,0,0,1-9,9.286,146.851,146.851,0,0,1-11.959,9.2c-5.98,4.2-12.017,8.366-18.025,12.563q-10.809,7.59-21.36,15.553l-.259.173-.2-.23c-1.84-2.444-3.68-4.858-5.577-7.245" transform="translate(-21.3 -8.529)" fill="none" stroke="#000" stroke-linecap="round" stroke-linejoin="round" stroke-width="5"/>
          <path id="_Path_4" data-name="&lt;Path&gt;" d="M55.91,15.58A22.079,22.079,0,0,1,66.259,30.3,28.288,28.288,0,0,1,66.4,40.735c-.259,1.552-.517,3.076-.862,4.571a36.654,36.654,0,0,1-6.5,14.6" transform="translate(43.588 4.692)" fill="none" stroke="#000" stroke-linecap="round" stroke-linejoin="round" stroke-width="5"/>
        </g>
      </g>
      <g id="_x32_21_x2C__shop_x2C__donate_x2C__shopping_x2C__online_x2C__hand" transform="translate(492.998 1226.023)">
        <g id="Group_41" data-name="Group 41">
          <path id="Path_37" data-name="Path 37" d="M172.2,367.665c37.594-14.005,56.992-12.02,77.4-5.434,13.406,4.322,27.359,2.734,47.719,1.224,16.01-1.2,13.493-.58,43.562-19.742,17.9-11.4,31.976-32.012,34.417-37.246,3.939-8.449,3.027-26.082-11.215-19.964-13.746,5.909-14.662,14.084-23.2,20.8-2.709,5.963-35.36,16.9-43.562,18.2-19.6,3.072-32.013-7.4-43.91-10.628-4.641-2.245-4.45-3.9,0-2.724,5.041,1.362,14.076,4.267,23.973,5.287,38.283-9.143,34.74-10.767,35.619-10.46,3.879-.609,14.17-8.193,15-12.9.9-5.078-8.076-7.035-8.076-7.035a303.492,303.492,0,0,0-32.568,3.062c-15.355,2.476-25.432-3.755-29.871-4.8-16.227-3.824-44.464-13.9-53.175-12.524l-1.72.313c-9.97,1.979-22.91,7.393-35.586,13.589-11.353,5.521-22.313,11.611-30.852,16.479,5.1,5.938,11.845,15.882,18.46,26.555,8.638,13.931,17.127,29.266,21.476,38.585m-35.667,2.63a5.376,5.376,0,0,0-3.882-1.12,5.255,5.255,0,0,0-3.513,1.953,5.326,5.326,0,0,0-1.12,3.879,5.26,5.26,0,0,0,9.345,2.681,5.291,5.291,0,0,0,1.12-3.878A5.374,5.374,0,0,0,140.422,370.928Zm-4.584-7.473a11.7,11.7,0,0,1,8.539,2.474,11.669,11.669,0,0,1,1.874,16.376,11.652,11.652,0,1,1-10.413-18.85Zm-6.924-58.732-.053-.025v-.027c-3.436-3.279-6.222-4.4-8.539-4.477a13.623,13.623,0,0,0-6.3,1.822l-4.218,2.03c-8.384,3.983-22.078,10.491-24.212,14.579l-.053.13c-1.614,3.333,40.18,85.849,46.368,84.48,15.648-5.429,38.6-16.577,40.246-20.21a10.977,10.977,0,0,0,.522-6.04,37.032,37.032,0,0,0-2.892-9.32c-3.643-8.592-11.19-19.413-20.588-34.591C141.513,320.682,133.757,309.409,128.914,304.723Z" fill-rule="evenodd"/>
        </g>
      </g>
    </g>
    <g id="iconfinder_00-ELASTOFONT-STORE-READY_rub_2703067" transform="matrix(0.996, 0.087, -0.087, 0.996, 834.569, 1863.07)">
      <path id="Path_38" data-name="Path 38" d="M21,1A20,20,0,1,0,41,21,20.022,20.022,0,0,0,21,1Zm0,37.5A17.5,17.5,0,1,1,38.5,21,17.519,17.519,0,0,1,21,38.5Z" fill="#1d1d1b"/>
      <path id="Path_39" data-name="Path 39" d="M16.89,5.875H11.819a1.25,1.25,0,0,0-1.247,1.252v9.39H9.059a1.252,1.252,0,0,0,0,2.5h1.513V20.69H9.059a1.252,1.252,0,0,0,0,2.5h1.513v5.217a1.247,1.247,0,1,0,2.494,0V23.194h4.753a1.252,1.252,0,0,0,0-2.5H13.066V19.021H16.89c4.508,0,8.176-2.949,8.176-6.573S21.4,5.875,16.89,5.875Zm0,10.642H13.066V8.379H16.89c3.132,0,5.682,1.826,5.682,4.069S20.023,16.517,16.89,16.517Z" transform="translate(4.561 3.231)" fill="#1d1d1b"/>
    </g>
    <g id="iconfinder_00-ELASTOFONT-STORE-READY_rub_2703067-2" data-name="iconfinder_00-ELASTOFONT-STORE-READY_rub_2703067" transform="translate(765.595 1914.395) rotate(-41)">
      <path id="Path_38-2" data-name="Path 38" d="M21,1A20,20,0,1,0,41,21,20.022,20.022,0,0,0,21,1Zm0,37.5A17.5,17.5,0,1,1,38.5,21,17.519,17.519,0,0,1,21,38.5Z" fill="#1d1d1b"/>
      <path id="Path_39-2" data-name="Path 39" d="M16.811,5.875H11.784a1.248,1.248,0,0,0-1.236,1.259V16.58h-1.5a1.26,1.26,0,0,0,0,2.519h1.5v1.679h-1.5a1.26,1.26,0,0,0,0,2.519h1.5v5.248a1.236,1.236,0,1,0,2.472,0V23.3h4.712a1.26,1.26,0,0,0,0-2.519H13.02V19.1h3.791c4.468,0,8.1-2.967,8.1-6.612S21.28,5.875,16.811,5.875Zm0,10.705H13.02V8.394h3.791c3.105,0,5.632,1.837,5.632,4.093S19.916,16.58,16.811,16.58Z" transform="translate(4.636 3.16)" fill="#1d1d1b"/>
    </g>
  </g>
</svg>
