<svg xmlns="http://www.w3.org/2000/svg" xmlns:xlink="http://www.w3.org/1999/xlink" width="467.292" height="257.828" viewBox="0 0 467.292 257.828">
  <defs>
    <linearGradient id="linear-gradient" x1="0.287" x2="1" y2="0.964" gradientUnits="objectBoundingBox">
      <stop offset="0" stop-color="#7e4399"/>
      <stop offset="1" stop-color="#3f224d"/>
    </linearGradient>
    <linearGradient id="linear-gradient-2" x1="0.713" y1="0.015" x2="0.029" y2="0.97" xlink:href="#linear-gradient"/>
  </defs>
  <g id="Group_18" data-name="Group 18" transform="translate(-1430 -490.796)">
    <g id="Group_11" data-name="Group 11" transform="translate(704 193)">
      <g id="Group_14" data-name="Group 14" transform="translate(-133 -654.313)">
        <path id="Path_45" data-name="Path 45" d="M738.734,494.1l213.992,56.7,232.282-53.041-60.357-197.531L961.87,339.552,793.6,300.228,733.7,489.986Z" transform="translate(133 654.313)" fill="#fff"/>
        <g id="book" transform="translate(859 952.108)">
          <g id="vector-open-book" transform="translate(0 0)">
            <path id="Path_14" data-name="Path 14" d="M276.3-384.9c-.4-.042-.916,44.8-.916,44.8s.135,155.13-2.575,155.6c-1.89.337-12.215,1.207-14.037,1.477a33.644,33.644,0,0,0-6.209,1.485c-.742.4-2.227.067-4.926-1.282-14.78-7.22-83.278-24.227-170.874-42.38-23.89-4.994-22.945-4.724-22.945-5.871,0-1.08.472-2.7,9.448-32.258,8.3-27.332,24.97-82.2,37.117-122.149,8.436-27.737,10.663-34.35,12.552-37.117.994-1.453,149.206,35.085,162.983,37.746.458.089.437.039.436,0,.022-.764-163.168-42.024-166.389-42.065a9.7,9.7,0,0,0-7.693,3.1c-.877.945-32.6,101.161-58.645,185.18C42.215-233.9,41-228.973,41-227.556c0,3.712,2.092,6.209,6.276,7.423,4.252,1.215,21.965,6,22.365,6.624.55.811,176.784,39.941,176.177,38.929-.2-.337,1.417.27,3.577,1.35,5.871,2.969,12.485,4.117,23.417,4.117h2.51s-1.417-19.857-1.246-47.415C274.47-280.357,276.894-385.44,276.3-384.9Z" transform="translate(-41 426.925)" fill="url(#linear-gradient)"/>
          </g>
          <g id="vector-open-book-2" data-name="vector-open-book" transform="translate(229.552 0)">
            <path id="Path_14-2" data-name="Path 14" d="M45.883-384.853c.2.2-3.719,199.685.2,200.36,1.89.337,12.215,1.207,14.037,1.477a33.644,33.644,0,0,1,6.209,1.485c.742.4,2.227.067,4.926-1.282,14.779-7.221,83.277-24.227,170.873-42.381,23.89-4.994,22.945-4.724,22.945-5.871,0-1.08-.472-2.7-9.448-32.258-8.3-27.332-24.97-82.2-37.117-122.149-8.436-27.737-10.663-34.35-12.552-37.117-.989-1.446-160.068,37.828-160.068,37.828v-.093c-.022-.764,159.817-42.014,163.037-42.054a9.7,9.7,0,0,1,7.693,3.1c.877.945,32.6,101.161,58.645,185.18,1.417,4.724,2.632,9.65,2.632,11.068,0,3.712-2.092,6.209-6.276,7.423-4.252,1.215-21.965,6-22.365,6.624-.55.811-176.785,39.941-176.177,38.929.2-.337-1.417.27-3.577,1.35-5.871,2.969-12.485,4.117-23.417,4.117-.3,0-1.253.128-1.663-.319C34.413-179.986,45.028-385.642,45.883-384.853Z" transform="translate(-40.15 426.925)" fill="url(#linear-gradient-2)"/>
          </g>
        </g>
      </g>
    </g>
    <g id="_5555" data-name="5555" transform="translate(1509.406 533.713) rotate(11)">
      <path id="Path_14-3" data-name="Path 14" d="M52.127-509.554c-.581.238-.581.264.608,1.982,1.639,2.405,1.85,3.383,1.48,6.422-.766,6.29-6.29,18.977-10.995,25.214a7.557,7.557,0,0,0-1.454,2.564c0,2.088,1.427,3.991,2.987,3.991,2.511,0,7.823,1.9,11.576,4.15l2.062,1.216-1.744,2.537c-4.546,6.528-7.982,10.81-11.074,13.8-2.564,2.432-3.33,2.907-6.185,3.753a16.083,16.083,0,0,0-2.775,1.084c-.529.4-.5.449.872,3.2a14.469,14.469,0,0,0,2.035,3.2c.608.4.819.344,3.621-.793,5.471-2.194,11.285-4.123,12.422-4.123.476,0,1.348,1.533,2.009,3.594,1.11,3.409,1.189,5.312.978,24.58-.344,30.553-.37,27.751.449,29.5.9,1.956,2.432,2.775,4.044,2.167.555-.211,1.348-1.8,1.559-3.145.106-.608.211-12.792.211-27.09.053-29.786.317-26.588-2.617-29.628-.925-.978-1.612-1.824-1.48-1.9.106-.053.687-.264,1.269-.449s4.07-1.454,7.77-2.828c5.471-2.035,6.766-2.431,7.03-2.141.159.185,1.427,2.194,2.775,4.44,3.013,5.048,2.907,4.916,3.885,4.519,1.348-.555,1.8-1.691,1.8-4.414a7.28,7.28,0,0,0-1.11-4.625c-1.718-3.462-5.022-7.03-9.594-10.387a16.63,16.63,0,0,0-3.832-2.273c-.4,0,0,1.057,1.189,3.092,1.771,2.96,3.779,6.977,3.594,7.136-.238.238-6.951,2.114-14.669,4.07-6.449,1.639-11.206,2.617-12.9,2.617-1.11,0-.687-1,1.189-3.013,5.1-5.312,19.162-22.518,26.668-32.614,2.088-2.8,4.44-5.788,5.233-6.66a12.081,12.081,0,0,0,1.454-1.771c0-1.057-6-6.5-8.669-7.85-1.718-.9-4.044-.476-3.277.581a10.9,10.9,0,0,1,1.9,4.837c0,2.828-1.8,7.665-4.757,12.818a107.726,107.726,0,0,1-6.37,9.753,12.882,12.882,0,0,1-3.224-1.533c-1.612-.951-4.546-2.484-6.449-3.462a16.822,16.822,0,0,1-3.515-2.035c0-.159,1.533-2.7,3.409-5.63,6.185-9.673,10.81-17.629,11.788-20.3.687-1.85.317-2.511-2.722-4.784-4.6-3.515-4.519-3.462-6.264-3.542A6.891,6.891,0,0,0,52.127-509.554Z" transform="translate(-31.723 509.753)" fill="#7e4399"/>
      <path id="Path_15" data-name="Path 15" d="M259.617-508.081c-6.977,3.251-16.281,5-28.808,5.392-6.105.211-8.378-.079-11.735-1.48a7.4,7.4,0,0,0-2.035-.661c-.449.291-.529,1.691-.132,2.458.529,1.031,3.172,3.383,5.048,4.52,2.247,1.374,3.092,1.348,9.25-.185,10.175-2.537,17.259-3.806,24.236-4.334,3.753-.264,4.2-.264,4.81.159.608.4.687.608.687,2.035,0,1.454-1.242,11.074-1.454,11.285-.106.106-9.25,1.533-20.219,3.119-11.18,1.639-12.581,1.559-17.655-.872a6.535,6.535,0,0,0-2.326-.766c-.238.079-.37.529-.37,1.242,0,1.454.714,2.379,3.515,4.546,2.458,1.929,4.017,2.828,4.863,2.828a36.949,36.949,0,0,0,4.308-1.057,138.367,138.367,0,0,1,23.919-4.467c1.744-.132,3.2-.211,3.224-.185.053.053-1.8,13.664-1.877,13.823-.026.026-5.735.951-12.713,2.061s-16.069,2.537-20.219,3.2c-9.118,1.454-11.893,1.586-14.8.687-1.084-.344-2.96-1.031-4.176-1.533a14.915,14.915,0,0,0-2.564-.9c-.529,0-.529,1.876,0,2.881.687,1.348,3.832,3.964,6.079,5.074,3.33,1.665,4.1,1.639,9.541-.132a106.628,106.628,0,0,1,17.6-4.255c1.242-.159,1.269-.132,2.564,1.163,1.771,1.744,1.9,2.379.925,4.229-.925,1.8-5.947,6.9-9.779,9.964a72.648,72.648,0,0,1-17.1,10.123c-2.987,1.242-3.33,1.744-.951,1.506,6.9-.74,15.224-4.044,23.628-9.383l1.321-.819,2.062,2.114a13.411,13.411,0,0,1,2.035,2.511c0,.608-4.52,5.735-9.118,10.308a104.908,104.908,0,0,1-20.536,16.307c-1.9,1.136-3.568,2.061-3.674,2.061a.269.269,0,0,0-.238.291c0,.423,1.665.159,4.625-.687,9.2-2.669,18.818-8.933,29.443-19.214,3.066-2.96,3.33-3.145,3.674-2.7a33.529,33.529,0,0,1,2.7,5.894c.344,1.348.423,1.242-3.991,6.9-11.18,14.431-23.522,25.161-36.05,31.266-1.877.925-3.7,1.8-4.017,1.929-.449.185-.529.344-.344.634.185.317.581.317,2.749.053,10.07-1.269,22.624-9.62,39.327-26.218l4.414-4.387.132.951a104.492,104.492,0,0,1,.555,13.083c-.5,9.462-2.167,14.325-5.5,16.043-1.718.872-4.7.581-11.127-1.084-3.779-.978-5.365-1.269-5.55-1.084-.37.37-.079.608,5.18,4.123,3.674,2.458,5.762,4.255,5.762,4.942a23.284,23.284,0,0,0,1.031,2.432c1.269,2.722,1.824,3.145,3.674,2.775,3.621-.687,6.845-3.779,9.488-9.118,4.757-9.541,5-23.1.74-39.777l-.634-2.511,1.507,1.586c3.066,3.251,9.938,12.739,18.765,25.928,4.863,7.295,6.66,9.409,8.193,9.726a79.762,79.762,0,0,0,10.651.846c5.127.185,5.207.185,5.5-.37.317-.608.106-.819-9.911-8.933-6.555-5.339-11.946-10.413-21.144-19.822-8.96-9.2-14.166-14.669-14.061-14.774.053-.026,2.273-.978,4.969-2.141a203.389,203.389,0,0,0,19.479-9.62c3.33-1.982,5.365-3.753,5.365-4.652,0-1.163-1.48-2.405-4.837-4.044-3.806-1.85-4.784-2.141-6.264-1.877-1.692.317-1.8.555-.846,2.352,1.4,2.59,1.163,3.409-1.85,6.237a61.243,61.243,0,0,1-9.805,7.136c-3.832,2.405-8.537,5.154-8.828,5.154a7.292,7.292,0,0,1-1.506-1.718,68.849,68.849,0,0,0-8.3-8.7l-1.824-1.533,4.652-4.308c5.022-4.625,7.691-7.321,7.691-7.77,0-.423-1.639-1.639-4.255-3.119-1.454-.819-2.3-1.427-2.062-1.506.529-.211,6.951-1.374,10.836-2.009a151.068,151.068,0,0,1,29.945-1.9c5.5.344,6.634.238,7.585-.634a1.844,1.844,0,0,0,.053-2.432c-.661-.766-2.643-1.692-5.709-2.669-3.938-1.269-5.1-1.3-8.246-.317-1.454.449-3.832,1.057-5.286,1.348-2.8.581-10.757,1.876-10.863,1.771-.079-.079,3.489-17.259,4.1-19.664a34.865,34.865,0,0,1,2.96-7.9c1.136-2.061,1.242-2.8.555-3.832-1.057-1.586-7.057-5.788-8.193-5.762A8.541,8.541,0,0,0,259.617-508.081Z" transform="translate(-153.634 509.126)" fill="#7e4399"/>
      <path id="Path_16" data-name="Path 16" d="M168-210.8a4.839,4.839,0,0,0,.291,1c.159.4.819,2.273,1.48,4.176a73.952,73.952,0,0,1,3.938,16.334c.634,5.55,1.242,6.792,3.224,6.792,3.145,0,4.229-5.947,2.167-12.158-1.507-4.625-5.947-12.026-8.96-14.986C168.846-210.929,168-211.378,168-210.8Z" transform="translate(-128.62 289.994)" fill="#7e4399"/>
      <path id="Path_17" data-name="Path 17" d="M28.33-205.663c-.555.238-.555.238.4,2.432.951,2.141.978,2.273.978,5.365a33.525,33.525,0,0,1-1.639,10.043,116.581,116.581,0,0,1-7.374,18.157A36.839,36.839,0,0,0,19-166.019c0,.766,1.189.026,3.224-2.062a51.289,51.289,0,0,0,9.726-14.061,104.856,104.856,0,0,0,4.229-9.885c0-.079.529-1.506,1.189-3.172a19.175,19.175,0,0,0,1.189-3.859c0-1.956-6.343-6.9-8.775-6.845A4.643,4.643,0,0,0,28.33-205.663Z" transform="translate(-19 286.209)" fill="#7e4399"/>
    </g>
    <path id="Path_89" data-name="Path 89" d="M29.613,118.115l-.247-.545Q45.332,110.493,65.5,91.825q17.037-16.1,24.2-28.311Q67.636,66.859,58.83,69.347a11.823,11.823,0,0,1-2.469.389q-4.2,0-10.946-5.133-5.021-3.888-5.02-5.678a4,4,0,0,1,.494-1.633l.74-.078a26.562,26.562,0,0,0,16.461,5.211q5.349,0,42.056-5.289V39.169a20.033,20.033,0,0,0-5.514-14.156v-.467a4.131,4.131,0,0,1,3.292-1.322q1.809,0,7.078,3.5,4.855,3.19,4.856,5.289a6.4,6.4,0,0,1-.412,2.1,43.25,43.25,0,0,0-1.564,10.578l-.412,11.589q11.769-1.322,24.032-2.256a140.558,140.558,0,0,0,18.929-2.489,19.891,19.891,0,0,1,3.292-.389A18.947,18.947,0,0,1,164.67,54.8q2.3,1.557,2.3,2.8,0,2.333-3.457,2.333a31.5,31.5,0,0,1-3.456-.233,182.408,182.408,0,0,0-19.752-.778,283.757,283.757,0,0,0-32.921,2.022V63.2q40.162,36.791,57.035,47.445a94.356,94.356,0,0,0,9.876,5.289,79.744,79.744,0,0,1,7.572,4.356v.622q-5.844,1.557-16.625,1.555a13.756,13.756,0,0,1-9.629-3.889q-15.144-14.389-29.464-30.412-14.4-16.177-19.094-20.533l-.329,45.034q10.534-1.01,16.954-2.1a19.407,19.407,0,0,1,2.88-.311q6.914,0,6.913,4.356,0,1.945-4.609,1.944l-7.9-.078a93.008,93.008,0,0,0-14.156,1.089v15.167q0,3.89.247,12.367.082,3.5.082,5.445,0,10.655-4.2,10.655-4.528,0-4.527-10.655,0-1.633.329-5.756.574-5.677.658-10.967l.412-15.478q-11.277,1.323-19.094,2.722a11.453,11.453,0,0,1-2.058.233q-1.895,0-5.514-3.266a6.068,6.068,0,0,1-2.058-3.266l.576-.233a28.84,28.84,0,0,0,7,1.089,134.362,134.362,0,0,0,21.4-1.867V64.915Q81.377,87.627,64.095,100.693,42.124,117.1,29.613,118.115Z" transform="translate(1639.848 538.216) rotate(-11)" fill="#558bc8"/>
  </g>
</svg>
