<svg id="Слой_1" data-name="Слой 1" xmlns="http://www.w3.org/2000/svg" xmlns:xlink="http://www.w3.org/1999/xlink" width="484.83" height="227.69" viewBox="0 0 484.83 227.69">
  <defs>
    <linearGradient id="Безымянный_градиент" data-name="Безымянный градиент" x1="-704.64" y1="650.86" x2="-703.67" y2="650.86" gradientTransform="matrix(163.68, 0, 0, -116.81, 115501.35, 76082.39)" gradientUnits="userSpaceOnUse">
      <stop offset="0" stop-color="#7e4399"/>
      <stop offset="1" stop-color="#558bc8"/>
    </linearGradient>
  </defs>
  <title>logo-about</title>
  <g id="Group_4" data-name="Group 4">
    <g id="Group_1" data-name="Group 1">
      <g id="logo">
        <g id="Юкарихон" style="isolation: isolate">
          <g style="isolation: isolate">
            <path d="M14.87,152.62H26.71q2.58-16.26,12.88-24.06t22-7.8q15.28,0,25.66,10.24a35.82,35.82,0,0,1,.09,50.32,34.11,34.11,0,0,1-25.2,10.36,35.17,35.17,0,0,1-23.82-8.8q-10.14-8.77-11.66-24H14.87V190H8.12V122.46h6.75ZM90.7,156.2q0-12.54-8.66-20.7a28.26,28.26,0,0,0-20-8.17,27.69,27.69,0,0,0-19.88,8.28q-8.54,8.28-8.53,20.91A27.16,27.16,0,0,0,42.07,177,27.77,27.77,0,0,0,62,185.11,28,28,0,0,0,82.3,176.9Q90.7,168.68,90.7,156.2Z" transform="translate(-8.12)" fill="#363836"/>
            <path d="M110.11,140h6.43v21l23.13-21h9L123.28,162.9,150.62,190h-9.1l-23-23.09-2,1.79V190h-6.43Z" transform="translate(-8.12)" fill="#363836"/>
            <path d="M207.05,140V190h-6.34v-8.59a27.4,27.4,0,0,1-9.06,7.39,25.32,25.32,0,0,1-29.1-5.21,25.78,25.78,0,0,1-7.51-18.7,25.31,25.31,0,0,1,7.58-18.45,24.69,24.69,0,0,1,18.22-7.67A23.61,23.61,0,0,1,192,141.37a25.37,25.37,0,0,1,8.74,7.85V140ZM181.37,145a19.4,19.4,0,0,0-17.13,10,20.22,20.22,0,0,0,0,20.17,19.68,19.68,0,0,0,7.26,7.5,19,19,0,0,0,9.79,2.68,20,20,0,0,0,10-2.66,18.55,18.55,0,0,0,7.26-7.2,20.48,20.48,0,0,0,2.55-10.22,19.91,19.91,0,0,0-5.71-14.49A18.92,18.92,0,0,0,181.37,145Z" transform="translate(-8.12)" fill="#363836"/>
            <path d="M221.6,140H228v9.18a25.88,25.88,0,0,1,8.76-7.85,23.35,23.35,0,0,1,11.05-2.62A24.69,24.69,0,0,1,266,146.42a25.33,25.33,0,0,1,7.56,18.45,25.77,25.77,0,0,1-7.5,18.7,25.22,25.22,0,0,1-29,5.21,27.44,27.44,0,0,1-9-7.39v26.85H221.6ZM247.3,145a18.86,18.86,0,0,0-14,5.82,19.87,19.87,0,0,0-5.71,14.49,20.48,20.48,0,0,0,2.55,10.22,18.47,18.47,0,0,0,7.28,7.2,20.06,20.06,0,0,0,10,2.66,18.85,18.85,0,0,0,9.73-2.68,19.68,19.68,0,0,0,7.26-7.5,20.25,20.25,0,0,0,0-20.17,19.36,19.36,0,0,0-17.1-10Z" transform="translate(-8.12)" fill="#363836"/>
            <path d="M292.05,140v37l36.67-37h.51V190H322.8V153.37L286.41,190h-.78V140Z" transform="translate(-8.12)" fill="#363836"/>
            <path d="M337.86,140h7.71l13.28,18.27L372,140h7.73l-17,23.59L381.88,190h-7.83l-15.2-21-15.11,21h-7.67L355,163.68Z" transform="translate(-8.12)" fill="#363836"/>
            <path d="M412.31,138.75a24.71,24.71,0,0,1,19.12,8.36,26.81,26.81,0,0,1-.39,36.33q-7.29,7.81-18.73,7.82t-18.79-7.82a26.78,26.78,0,0,1-.39-36.29A24.73,24.73,0,0,1,412.31,138.75Zm0,6.29A18.57,18.57,0,0,0,398.51,151a19.79,19.79,0,0,0-5.76,14.32,20.32,20.32,0,0,0,2.63,10.1,18.6,18.6,0,0,0,7.09,7.23,20.14,20.14,0,0,0,19.62,0,18.63,18.63,0,0,0,7.1-7.23,20.31,20.31,0,0,0,2.62-10.1A19.77,19.77,0,0,0,426,151,18.59,18.59,0,0,0,412.28,145Z" transform="translate(-8.12)" fill="#363836"/>
            <path d="M485.7,165.93H456.64v24h-6.42V140h6.42v19.83H485.7V140h6.42V190H485.7Z" transform="translate(-8.12)" fill="#363836"/>
          </g>
        </g>
      </g>
      <g id="городская_школа" data-name="городская школа" style="isolation: isolate">
        <g style="isolation: isolate">
          <path d="M251.35,209.06v13.19h-1.91V207.37H257v1.69Z" transform="translate(-8.12)" fill="#363836"/>
          <path d="M266.58,207a7.38,7.38,0,0,1,5.7,2.49,8,8,0,0,1-.12,10.82,7.86,7.86,0,0,1-11.17,0,8,8,0,0,1-.12-10.81A7.39,7.39,0,0,1,266.58,207Zm0,1.87a5.5,5.5,0,0,0-4.1,1.77,5.89,5.89,0,0,0-1.71,4.26,6.06,6.06,0,0,0,.78,3,5.46,5.46,0,0,0,2.11,2.15,6,6,0,0,0,5.85,0,5.52,5.52,0,0,0,2.11-2.15,6.06,6.06,0,0,0,.78-3,5.86,5.86,0,0,0-1.72-4.26A5.52,5.52,0,0,0,266.57,208.86Z" transform="translate(-8.12)" fill="#363836"/>
          <path d="M277.9,207.37h1.91v2.74a7.76,7.76,0,0,1,2.61-2.34,7,7,0,0,1,3.29-.78,7.37,7.37,0,0,1,5.43,2.28,7.57,7.57,0,0,1,2.25,5.5,7.66,7.66,0,0,1-2.23,5.57,7.53,7.53,0,0,1-8.66,1.55,8.24,8.24,0,0,1-2.69-2.2v8H277.9Zm7.66,1.47a5.63,5.63,0,0,0-4.18,1.73,5.91,5.91,0,0,0-1.7,4.32,6.14,6.14,0,0,0,.75,3,5.61,5.61,0,0,0,2.17,2.15,6.1,6.1,0,0,0,3,.79,5.63,5.63,0,0,0,2.9-.8,5.79,5.79,0,0,0,2.16-2.23,6,6,0,0,0,0-6,5.74,5.74,0,0,0-5.09-3Z" transform="translate(-8.12)" fill="#363836"/>
          <path d="M304,207a7.35,7.35,0,0,1,5.7,2.49,8,8,0,0,1-.12,10.82,7.86,7.86,0,0,1-11.17,0,8,8,0,0,1-.12-10.81A7.39,7.39,0,0,1,304,207Zm0,1.87a5.54,5.54,0,0,0-4.11,1.77,5.89,5.89,0,0,0-1.71,4.26,6.06,6.06,0,0,0,.78,3,5.52,5.52,0,0,0,2.11,2.15,6,6,0,0,0,5.85,0A5.46,5.46,0,0,0,309,217.9a6.06,6.06,0,0,0,.78-3,5.86,5.86,0,0,0-1.72-4.26A5.51,5.51,0,0,0,304,208.86Z" transform="translate(-8.12)" fill="#363836"/>
          <path d="M315.43,220.62l5.73-13.25h1l5.72,13.25h1.78v3.53h-1.84v-1.9H315.51v2h-1.88v-3.61Zm6.21-10.29-4.35,10.29h8.52Z" transform="translate(-8.12)" fill="#363836"/>
          <path d="M346.68,210.46l-1.51.95a6.36,6.36,0,0,0-5.37-2.61,6.21,6.21,0,0,0-4.51,1.74,5.72,5.72,0,0,0-1.8,4.25,6.07,6.07,0,0,0,.83,3.06,5.77,5.77,0,0,0,2.26,2.23,6.69,6.69,0,0,0,3.23.79,6.55,6.55,0,0,0,5.36-2.61l1.51,1a7.09,7.09,0,0,1-2.86,2.5,9.15,9.15,0,0,1-4.1.88,8.11,8.11,0,0,1-5.85-2.24,7.29,7.29,0,0,1-2.32-5.46,7.75,7.75,0,0,1,1.09-4,7.67,7.67,0,0,1,3-2.89,8.78,8.78,0,0,1,4.26-1,9.14,9.14,0,0,1,2.85.45,7.84,7.84,0,0,1,2.33,1.18A6.43,6.43,0,0,1,346.68,210.46Z" transform="translate(-8.12)" fill="#363836"/>
          <path d="M350.36,207.37h1.92v6.27l6.89-6.27h2.66l-7.54,6.81,8.14,8.07h-2.71l-6.84-6.88-.6.54v6.34h-1.92Z" transform="translate(-8.12)" fill="#363836"/>
          <path d="M379.24,207.37v14.88h-1.89v-2.56a8.07,8.07,0,0,1-2.7,2.2,7.54,7.54,0,0,1-8.67-1.55,7.66,7.66,0,0,1-2.23-5.57,7.57,7.57,0,0,1,2.25-5.5,7.38,7.38,0,0,1,5.43-2.28,7,7,0,0,1,3.32.78,7.64,7.64,0,0,1,2.6,2.34v-2.74Zm-7.65,1.47a5.74,5.74,0,0,0-5.1,3,5.94,5.94,0,0,0-.8,3,6.14,6.14,0,0,0,.8,3,5.89,5.89,0,0,0,2.17,2.23,5.67,5.67,0,0,0,2.91.8,6.07,6.07,0,0,0,3-.79,5.51,5.51,0,0,0,2.16-2.15,6,6,0,0,0,.76-3,5.91,5.91,0,0,0-1.7-4.32A5.64,5.64,0,0,0,371.59,208.84Z" transform="translate(-8.12)" fill="#363836"/>
          <path d="M389.82,215.59h-1.36l-4.25,6.66h-2.06l4.48-6.85a4.45,4.45,0,0,1-2.72-1.27,3.6,3.6,0,0,1-1-2.63,3.9,3.9,0,0,1,1.2-3.05,4.5,4.5,0,0,1,3.14-1.08h4.52v14.88h-1.91Zm0-6.56h-1.26a8.63,8.63,0,0,0-2.46.23,2,2,0,0,0-1,.8,2.82,2.82,0,0,0-.37,1.52,2.34,2.34,0,0,0,.48,1.52,2,2,0,0,0,1.07.73,12.44,12.44,0,0,0,2.28.13h1.26Z" transform="translate(-8.12)" fill="#363836"/>
          <path d="M426,222.25H403.75V207.37h1.91v13.07h8.21V207.37h1.95v13.07H424V207.37h2Z" transform="translate(-8.12)" fill="#363836"/>
          <path d="M430.23,207.37h1.92v6.27l6.89-6.27h2.66l-7.54,6.81,8.14,8.07h-2.71l-6.84-6.88-.6.54v6.34h-1.92Z" transform="translate(-8.12)" fill="#363836"/>
          <path d="M451.33,207a7.38,7.38,0,0,1,5.7,2.49,8,8,0,0,1-.12,10.82,7.87,7.87,0,0,1-11.18,0,8,8,0,0,1-.11-10.81A7.38,7.38,0,0,1,451.33,207Zm0,1.87a5.5,5.5,0,0,0-4.1,1.77,5.9,5.9,0,0,0-1.72,4.26,6,6,0,0,0,.79,3,5.46,5.46,0,0,0,2.11,2.15,6,6,0,0,0,5.84,0,5.55,5.55,0,0,0,2.12-2.15,6.06,6.06,0,0,0,.78-3,5.9,5.9,0,0,0-1.72-4.26A5.54,5.54,0,0,0,451.32,208.86Z" transform="translate(-8.12)" fill="#363836"/>
          <path d="M475.22,222.25h-2l-5-10.83-4.94,10.83h-2.05L468,207.37h.34Z" transform="translate(-8.12)" fill="#363836"/>
          <path d="M493,207.37v14.88h-1.89v-2.56a8.07,8.07,0,0,1-2.7,2.2,7.54,7.54,0,0,1-8.67-1.55,7.66,7.66,0,0,1-2.23-5.57,7.57,7.57,0,0,1,2.25-5.5,7.38,7.38,0,0,1,5.43-2.28,7,7,0,0,1,3.32.78,7.46,7.46,0,0,1,2.6,2.34v-2.74Zm-7.65,1.47a5.74,5.74,0,0,0-5.1,3,6,6,0,0,0,0,6,5.79,5.79,0,0,0,2.16,2.23,5.7,5.7,0,0,0,2.92.8,6.06,6.06,0,0,0,3-.79,5.61,5.61,0,0,0,2.17-2.15,6.15,6.15,0,0,0,.76-3,6,6,0,0,0-1.7-4.32A5.67,5.67,0,0,0,485.31,208.84Z" transform="translate(-8.12)" fill="#363836"/>
        </g>
      </g>
      <path id="Path_11" data-name="Path 11" d="M237.87,6.2c-.7,23.16-8.63,45.59-22.19,62.71a126.72,126.72,0,0,1-14.22,14.25,110.3,110.3,0,0,1-33.88,18c-4.22,1.42-4.47,1.55-4.22,2.17.16.38,1.16,3.53,2.23,7s2,6.39,2.18,6.51,8.62-2.58,13.24-4.43a147,147,0,0,0,16.49-8.18c22.15-13.25,37.69-31.9,47.13-56.51.28-.69.63-1.2.76-1.13a24.55,24.55,0,0,1,1.79,3.77,109,109,0,0,0,26.87,39.36c11.58,11,26.62,19.67,43.67,25.33,1.77.6,4.57,1.41,4.57,1.41s2.31-5.81,2.62-6.85,2-5.32,2.06-7l-6.58-2.37c-1.82-.56-3.87-1.29-4.56-1.6s-1.54-.66-1.89-.78c-1.66-.63-12-6-15.1-7.8-1-.63-2.7-1.7-3.68-2.43s-2.55-1.79-3.46-2.45a22.49,22.49,0,0,1-2.45-1.89c-.44-.37-1.64-1.41-2.68-2.26s-3.27-3-5-4.69C268.29,62.94,259.14,45.13,255,24.71a86.84,86.84,0,0,1-2-18.53L252.91,0H238.05Zm12.71,1.67A86.56,86.56,0,0,0,252,21.68c.29,1.48.6,3.4.76,4.28a116.49,116.49,0,0,0,5,17.27C265,62.17,276.16,76.9,291.92,88.32c1.92,1.38,3.62,2.58,3.78,2.64s1.32.79,2.51,1.58c2.33,1.57,10.51,5.41,11.05,5.72s12.34,5,14.55,5.53l.32.14-3.42,9.46c-.25.26-9.82-3.46-13.44-5-1.35-.6-3.58-1.64-5-2.26A191.93,191.93,0,0,1,284,94.77a105.29,105.29,0,0,1-26.81-29.95,143,143,0,0,1-6.76-13.22c-.44-1.13-1-2.48-1.26-3-.5-1.2-2.45-6.64-3.18-9l-.53-1.79-1.64,4.78C233.08,74,211.34,97,180.16,109.71c-2.39,1-5.72,2.24-7.42,2.8l-3.09,1-.31-.85c-.73-1.89-2.49-7.55-2.49-8s1.17-.85,3.09-1.51C202,92.15,224.05,70.35,234.4,39.36a120,120,0,0,0,5.92-32.12c.12-2.33.25-4.44.34-4.66s1.23-.38,4.91-.32l4.82.1Z" transform="translate(-8.12)" fill="url(#Безымянный_градиент)"/>
    </g>
  </g>
</svg>
