<svg id="Слой_1" data-name="Слой 1" xmlns="http://www.w3.org/2000/svg" xmlns:xlink="http://www.w3.org/1999/xlink" width="187.49" height="81.14" viewBox="0 0 187.49 81.14">
  <defs>
    <linearGradient id="Безымянный_градиент" data-name="Безымянный градиент" x1="-849.04" y1="570.23" x2="-848.06" y2="570.23" gradientTransform="matrix(61.91, 0, 0, -44.18, 52626.45, 25214.17)" gradientUnits="userSpaceOnUse">
      <stop offset="0" stop-color="#7e4399"/>
      <stop offset="1" stop-color="#558bc8"/>
    </linearGradient>
  </defs>
  <title>logo-nav</title>
  <g id="Group_5" data-name="Group 5">
    <g id="Group_3" data-name="Group 3">
      <g id="logo-nav">
        <g id="Юкарихон" style="isolation: isolate">
          <g style="isolation: isolate">
            <path d="M7.82,58.06h3.34Q13.49,52.15,17,49.9a13.56,13.56,0,0,1,7.46-2.27,13.08,13.08,0,0,1,9.37,3.91A13.78,13.78,0,0,1,34,70.87a12.84,12.84,0,0,1-9.44,3.92,13.86,13.86,0,0,1-8.94-3.24,11.92,11.92,0,0,1-4.42-8.73H7.82V74.14H2.94V48.28H7.82Zm25.12,3.2a8.82,8.82,0,0,0-2.41-6.17,7.9,7.9,0,0,0-6.09-2.64,8.25,8.25,0,0,0-6,2.44A8.54,8.54,0,0,0,16,61.29a8.3,8.3,0,0,0,2.57,6.33,8.51,8.51,0,0,0,6,2.41,8,8,0,0,0,6-2.55A8.65,8.65,0,0,0,32.94,61.26Z" transform="translate(-2.94 0)" fill="#363836"/>
            <path d="M42,55h4.8v7.15L53.4,55h5.86l-8.52,9.31,8.63,9.81H53l-5.7-6.75-.51.6v6.15H42Z" transform="translate(-2.94 0)" fill="#363836"/>
            <path d="M75.45,55h4.79V74.14H75.45v-2A9.43,9.43,0,0,1,72.63,74a7.78,7.78,0,0,1-3.07.59,8.54,8.54,0,0,1-6.41-2.87,10,10,0,0,1-2.7-7.15,10.26,10.26,0,0,1,2.62-7.26,8.34,8.34,0,0,1,6.35-2.83,8.1,8.1,0,0,1,3.23.65,9,9,0,0,1,2.8,2ZM70.4,59a4.88,4.88,0,0,0-3.7,1.58,5.67,5.67,0,0,0-1.47,4,5.74,5.74,0,0,0,1.5,4.08,4.85,4.85,0,0,0,3.69,1.6,5,5,0,0,0,3.75-1.57,5.78,5.78,0,0,0,1.49-4.13,5.59,5.59,0,0,0-1.49-4A5,5,0,0,0,70.4,59Z" transform="translate(-2.94 0)" fill="#363836"/>
            <path d="M89.86,55v2.11a9.11,9.11,0,0,1,2.81-2,8.19,8.19,0,0,1,3.24-.65,8.38,8.38,0,0,1,6.36,2.83,10.26,10.26,0,0,1,2.62,7.26,10,10,0,0,1-2.71,7.15,8.53,8.53,0,0,1-6.41,2.87A7.83,7.83,0,0,1,92.69,74a9.34,9.34,0,0,1-2.83-1.92v9H85.1V55Zm5,3.93a5,5,0,0,0-3.76,1.55,5.59,5.59,0,0,0-1.49,4,5.78,5.78,0,0,0,1.49,4.13,5,5,0,0,0,3.76,1.57,4.85,4.85,0,0,0,3.7-1.6,5.7,5.7,0,0,0,1.51-4.08,5.63,5.63,0,0,0-1.48-4A4.89,4.89,0,0,0,94.9,59Z" transform="translate(-2.94 0)" fill="#363836"/>
            <path d="M111.39,74.14h-2.55V55h4.68V66.25L123.31,55h2.3V74.14h-4.67v-11Z" transform="translate(-2.94 0)" fill="#363836"/>
            <path d="M128.74,55h5.57l3.78,5.21L141.86,55h5.47l-6.49,9,7.34,10.12h-5.57l-4.55-6.27-4.52,6.27h-5.48l7.26-10.06Z" transform="translate(-2.94 0)" fill="#363836"/>
            <path d="M159.61,54.52a10.09,10.09,0,0,1,5.09,1.36,9.72,9.72,0,0,1,3.72,3.67,9.89,9.89,0,0,1,1.33,5,10.08,10.08,0,0,1-1.34,5.06,9.78,9.78,0,0,1-3.67,3.69,10.13,10.13,0,0,1-5.11,1.32,9.54,9.54,0,0,1-7-2.92,9.77,9.77,0,0,1-2.9-7.11,10,10,0,0,1,9.91-10.08Zm.08,4.52A5,5,0,0,0,156,60.6a5.51,5.51,0,0,0-1.48,4,5.62,5.62,0,0,0,1.47,4,5.25,5.25,0,0,0,7.47,0,6.16,6.16,0,0,0,0-8A5,5,0,0,0,159.69,59Z" transform="translate(-2.94 0)" fill="#363836"/>
            <path d="M178.45,61.91h7.18V55h4.79V74.14h-4.79V66.21h-7.18v7.93h-4.8V55h4.8Z" transform="translate(-2.94 0)" fill="#363836"/>
          </g>
        </g>
      </g>
      <path id="Path_39" data-name="Path 39" d="M90.5,2.34a40.39,40.39,0,0,1-8.39,23.72,48,48,0,0,1-5.38,5.39,41.61,41.61,0,0,1-12.82,6.8c-1.59.54-1.69.59-1.59.82s.44,1.34.84,2.65.78,2.41.82,2.46a39.82,39.82,0,0,0,5-1.68,55.65,55.65,0,0,0,6.24-3.09A41.28,41.28,0,0,0,93.06,18c.1-.26.23-.45.28-.42A8.41,8.41,0,0,1,94,19a41.22,41.22,0,0,0,10.16,14.89A44.29,44.29,0,0,0,120.7,43.5c.67.23,1.73.53,1.73.53s.87-2.2,1-2.59a15.15,15.15,0,0,0,.78-2.62l-2.49-.9c-.69-.22-1.46-.49-1.72-.61l-.72-.3c-.63-.24-4.54-2.26-5.71-2.95-.39-.24-1-.64-1.39-.92s-1-.67-1.31-.92a10.52,10.52,0,0,1-.93-.72l-1-.86c-.39-.32-1.24-1.11-1.88-1.77A38.29,38.29,0,0,1,97,9.34a33,33,0,0,1-.76-7l0-2.33H90.57ZM95.31,3a32.76,32.76,0,0,0,.53,5.23c.11.56.23,1.28.29,1.62A43.91,43.91,0,0,0,98,16.35a36.28,36.28,0,0,0,12.91,17c.73.52,1.37,1,1.43,1s.5.3.95.6c.88.6,4,2,4.18,2.17s4.67,1.87,5.5,2.09l.12.05-1.29,3.58a47.64,47.64,0,0,1-5.08-1.9l-1.88-.86a70.68,70.68,0,0,1-6.94-4.28A39.79,39.79,0,0,1,97.79,24.52a54.72,54.72,0,0,1-2.56-5c-.17-.43-.38-.94-.47-1.13-.19-.45-.93-2.51-1.2-3.42l-.2-.67-.62,1.8A40.83,40.83,0,0,1,68.67,41.5c-.9.36-2.16.85-2.81,1.06L64.7,43l-.12-.32c-.27-.72-.94-2.86-.94-3s.44-.32,1.17-.57C76.94,34.86,85.27,26.62,89.19,14.9A45.32,45.32,0,0,0,91.43,2.75c0-.89.1-1.68.13-1.77S92,.84,93.41.87l1.82,0Z" transform="translate(-2.94 0)" fill="url(#Безымянный_градиент)"/>
    </g>
  </g>
</svg>
