<svg id="Слой_1" data-name="Слой 1" xmlns="http://www.w3.org/2000/svg" width="164.92" height="87.69" viewBox="0 0 164.92 87.69">
  <title>seiran3</title>
  <g id="Group_40" data-name="Group 40">
    <g id="SEIRAN" style="isolation: isolate">
      <g style="isolation: isolate">
        <path d="M1.82,25.76c0-4,1-7,2.83-9.13s4.73-3.19,8.51-3.19,6.61,1.06,8.51,3.19,2.83,5.16,2.83,9.13V27.3H17.22v-2a5.47,5.47,0,0,0-1-3.74,3.69,3.69,0,0,0-2.84-1.09,3.66,3.66,0,0,0-2.83,1.09,5.42,5.42,0,0,0-1,3.74,8.62,8.62,0,0,0,1.12,4.44,18.69,18.69,0,0,0,2.8,3.65q1.68,1.71,3.6,3.43a33.64,33.64,0,0,1,3.61,3.74,19,19,0,0,1,2.8,4.62,15.22,15.22,0,0,1,1.12,6.09q0,6-2.9,9.14t-8.58,3.18q-5.67,0-8.57-3.18T1.61,51.24v-3H8.89v3.5c0,1.77.36,3,1.09,3.71a4,4,0,0,0,2.9,1.05,4,4,0,0,0,2.91-1.05c.72-.7,1.08-1.94,1.08-3.71a8.62,8.62,0,0,0-1.12-4.44A18.69,18.69,0,0,0,13,43.64q-1.68-1.71-3.6-3.43a33.64,33.64,0,0,1-3.61-3.74,19,19,0,0,1-2.8-4.62A15.22,15.22,0,0,1,1.82,25.76Z" transform="translate(-1.61 -13.44)"/>
        <path d="M40.18,34.65H50.75v7H40.18V56h13.3v7h-21V14h21v7H40.18Z" transform="translate(-1.61 -13.44)"/>
        <path d="M61.74,14h7.7V63h-7.7Z" transform="translate(-1.61 -13.44)"/>
        <path d="M94.64,63c-.1-.33-.19-.63-.28-.91A6.26,6.26,0,0,1,94.11,61,14.42,14.42,0,0,1,94,59.43c0-.65,0-1.47,0-2.45v-7.7q0-3.44-1.19-4.83a4.82,4.82,0,0,0-3.85-1.4H86.24V63h-7.7V14H90.16c4,0,6.92.93,8.71,2.8s2.7,4.69,2.7,8.47v3.85q0,7.56-5,9.94a6.86,6.86,0,0,1,4,3.89,17.34,17.34,0,0,1,1.09,6.54v7.56a29.94,29.94,0,0,0,.14,3.19,9.92,9.92,0,0,0,.7,2.76Zm-8.4-42v15h3a4.82,4.82,0,0,0,3.39-1.12c.82-.75,1.23-2.1,1.23-4.06V26a6.22,6.22,0,0,0-1-3.85A3.57,3.57,0,0,0,90,21Z" transform="translate(-1.61 -13.44)"/>
        <path d="M135.1,63h-7.77L126,54.11h-9.45L115.22,63h-7.07L116,14h11.27ZM117.53,47.46H125l-3.71-24.78Z" transform="translate(-1.61 -13.44)"/>
        <path d="M149,27.51V63H142.1V14h9.66l7.91,29.33V14h6.86V63h-7.91Z" transform="translate(-1.61 -13.44)"/>
      </g>
    </g>
    <g id="ШКОЛА_ЯПОНСКОГО_ЯЗЫКА" data-name="ШКОЛА ЯПОНСКОГО ЯЗЫКА" style="isolation: isolate">
      <g style="isolation: isolate">
        <path d="M30.46,85H21.67V77h.94v7.2h3V77h.93v7.2h3V77h.94Z" transform="translate(-1.61 -13.44)"/>
        <path d="M39.34,85H38l-3.11-3.68c-.12-.14-.19-.24-.22-.28h0v4h-.94V77h.94v3.78h0a2.19,2.19,0,0,1,.22-.27l3-3.51H39.1l-3.45,3.86Z" transform="translate(-1.61 -13.44)"/>
        <path d="M44.8,85.13A3.54,3.54,0,0,1,42.06,84a4.2,4.2,0,0,1-1-2.94,4.43,4.43,0,0,1,1-3.1,3.67,3.67,0,0,1,2.86-1.16,3.47,3.47,0,0,1,2.69,1.13,4.21,4.21,0,0,1,1,2.93,4.42,4.42,0,0,1-1,3.12A3.62,3.62,0,0,1,44.8,85.13Zm.07-7.46a2.59,2.59,0,0,0-2.06.91A3.54,3.54,0,0,0,42,81a3.57,3.57,0,0,0,.77,2.39,2.53,2.53,0,0,0,2,.91,2.63,2.63,0,0,0,2.09-.87A3.51,3.51,0,0,0,47.66,81a3.65,3.65,0,0,0-.75-2.46A2.53,2.53,0,0,0,44.87,77.67Z" transform="translate(-1.61 -13.44)"/>
        <path d="M57,85h-.94V77.8H53.81c-.25,2-.46,3.46-.61,4.3A11.49,11.49,0,0,1,52.75,84a2,2,0,0,1-.62.88,1.6,1.6,0,0,1-1,.29,2.26,2.26,0,0,1-.77-.12v-.89a1.25,1.25,0,0,0,.64.17.83.83,0,0,0,.65-.42,6.69,6.69,0,0,0,.62-2.16c.22-1.17.45-2.75.71-4.76h4Z" transform="translate(-1.61 -13.44)"/>
        <path d="M66.5,85h-1l-.85-2.26H61.19L60.38,85H59.33l3.09-8h1Zm-2.21-3.11L63,78.46a4.31,4.31,0,0,1-.13-.54h0a3.06,3.06,0,0,1-.13.54L61.5,81.89Z" transform="translate(-1.61 -13.44)"/>
      </g>
      <g style="isolation: isolate">
        <path d="M77.54,85h-1V81.57H75.42a1,1,0,0,0-.59.19,2.05,2.05,0,0,0-.55.81l-1,2.43H72.15l1.22-2.69a2.61,2.61,0,0,1,.36-.56,1.37,1.37,0,0,1,.57-.42v0a2.16,2.16,0,0,1-1.25-.73,2.12,2.12,0,0,1-.45-1.36,2.06,2.06,0,0,1,.72-1.65A2.73,2.73,0,0,1,75.2,77h2.34Zm-1-4.28V77.8H75.28a1.83,1.83,0,0,0-1.23.38,1.3,1.3,0,0,0-.45,1.06,1.35,1.35,0,0,0,.45,1.08,1.75,1.75,0,0,0,1.21.4Z" transform="translate(-1.61 -13.44)"/>
        <path d="M86.91,85H86V77.82H81.75V85h-1V77h6.11Z" transform="translate(-1.61 -13.44)"/>
        <path d="M93.4,85.13A3.54,3.54,0,0,1,90.65,84a4.25,4.25,0,0,1-1-2.94,4.43,4.43,0,0,1,1-3.1,3.69,3.69,0,0,1,2.86-1.16,3.47,3.47,0,0,1,2.69,1.13,4.17,4.17,0,0,1,1,2.93,4.43,4.43,0,0,1-1,3.12A3.6,3.6,0,0,1,93.4,85.13Zm.06-7.46a2.6,2.6,0,0,0-2.06.91,4.08,4.08,0,0,0,0,4.8,2.55,2.55,0,0,0,2,.91,2.64,2.64,0,0,0,2.09-.87A3.56,3.56,0,0,0,96.25,81a3.71,3.71,0,0,0-.74-2.46A2.56,2.56,0,0,0,93.46,77.67Z" transform="translate(-1.61 -13.44)"/>
        <path d="M106,85h-.94V81.33h-4.17V85H100V77h.94v3.53h4.17V77H106Z" transform="translate(-1.61 -13.44)"/>
        <path d="M114.77,84.66a4.69,4.69,0,0,1-2.23.47,3.58,3.58,0,0,1-2.75-1.1,4.08,4.08,0,0,1-1-2.9A4.28,4.28,0,0,1,109.92,78a4,4,0,0,1,3-1.19,4.79,4.79,0,0,1,1.9.33v1a3.9,3.9,0,0,0-1.91-.48,2.94,2.94,0,0,0-2.25.92,3.48,3.48,0,0,0-.86,2.48,3.29,3.29,0,0,0,.8,2.34,2.73,2.73,0,0,0,2.12.88,4,4,0,0,0,2.1-.54Z" transform="translate(-1.61 -13.44)"/>
        <path d="M123.16,85h-1.31l-3.12-3.68-.21-.28h0v4h-.94V77h.94v3.78h0a2,2,0,0,1,.21-.27l3-3.51h1.18l-3.46,3.86Z" transform="translate(-1.61 -13.44)"/>
        <path d="M128.62,85.13A3.54,3.54,0,0,1,125.88,84a4.2,4.2,0,0,1-1-2.94A4.43,4.43,0,0,1,125.9,78a3.67,3.67,0,0,1,2.86-1.16,3.44,3.44,0,0,1,2.68,1.13,4.17,4.17,0,0,1,1,2.93,4.47,4.47,0,0,1-1,3.12A3.62,3.62,0,0,1,128.62,85.13Zm.07-7.46a2.59,2.59,0,0,0-2.06.91,4.08,4.08,0,0,0,0,4.8,2.52,2.52,0,0,0,2,.91,2.64,2.64,0,0,0,2.09-.87,3.51,3.51,0,0,0,.76-2.42,3.65,3.65,0,0,0-.74-2.46A2.53,2.53,0,0,0,128.69,77.67Z" transform="translate(-1.61 -13.44)"/>
        <path d="M139.37,77.82h-3.22V85h-1V77h4.17Z" transform="translate(-1.61 -13.44)"/>
        <path d="M145,85.13A3.56,3.56,0,0,1,142.27,84a4.25,4.25,0,0,1-1-2.94,4.43,4.43,0,0,1,1-3.1,3.69,3.69,0,0,1,2.86-1.16,3.47,3.47,0,0,1,2.69,1.13,4.17,4.17,0,0,1,1,2.93A4.43,4.43,0,0,1,147.81,84,3.6,3.6,0,0,1,145,85.13Zm.06-7.46a2.6,2.6,0,0,0-2.06.91,4.08,4.08,0,0,0,0,4.8,2.55,2.55,0,0,0,2,.91,2.64,2.64,0,0,0,2.09-.87,3.56,3.56,0,0,0,.76-2.42,3.71,3.71,0,0,0-.74-2.46A2.56,2.56,0,0,0,145.08,77.67Z" transform="translate(-1.61 -13.44)"/>
      </g>
      <g style="isolation: isolate">
        <path d="M70.38,101h-.94V97.57H68.27a1,1,0,0,0-.6.19,2.05,2.05,0,0,0-.54.81l-1,2.43H65l1.23-2.69a2.61,2.61,0,0,1,.36-.56,1.37,1.37,0,0,1,.57-.42v0a2,2,0,0,1-1.7-2.09,2.06,2.06,0,0,1,.72-1.65A2.73,2.73,0,0,1,68.05,93h2.33Zm-.94-4.28V93.8H68.13a1.87,1.87,0,0,0-1.24.38,1.32,1.32,0,0,0-.44,1.06,1.35,1.35,0,0,0,.45,1.08,1.73,1.73,0,0,0,1.21.4Z" transform="translate(-1.61 -13.44)"/>
        <path d="M73.13,100.66v-1a3.55,3.55,0,0,0,2.14.69,2.15,2.15,0,0,0,1.39-.42,1.39,1.39,0,0,0,.51-1.13c0-1-.7-1.55-2.09-1.55h-.84v-.78H75a2.16,2.16,0,0,0,1.38-.39,1.31,1.31,0,0,0,.49-1.1,1.25,1.25,0,0,0-.4-1,1.64,1.64,0,0,0-1.12-.36,3.53,3.53,0,0,0-2,.63v-1a4.12,4.12,0,0,1,2-.5,2.71,2.71,0,0,1,1.8.55,1.76,1.76,0,0,1,.66,1.43,1.88,1.88,0,0,1-1.53,2v0a2.06,2.06,0,0,1,1.32.62,1.88,1.88,0,0,1,.49,1.31,2.19,2.19,0,0,1-.79,1.76,3.23,3.23,0,0,1-2.15.65A3.91,3.91,0,0,1,73.13,100.66Z" transform="translate(-1.61 -13.44)"/>
        <path d="M81,101V93H82v3.41h1.53a2.79,2.79,0,0,1,1.87.58A2.07,2.07,0,0,1,86,98.6a2.25,2.25,0,0,1-.7,1.75,2.69,2.69,0,0,1-1.92.65ZM82,97.21v2.94h1.33a1.86,1.86,0,0,0,1.29-.4,1.37,1.37,0,0,0,.45-1.1q0-1.44-1.74-1.44Zm6,3.79H87V93h.94Z" transform="translate(-1.61 -13.44)"/>
        <path d="M96.77,101H95.46l-3.11-3.68c-.12-.14-.19-.24-.22-.28h0v4h-.94V93h.94v3.78h0c.06-.08.13-.17.22-.27l3-3.51h1.17l-3.45,3.86Z" transform="translate(-1.61 -13.44)"/>
        <path d="M105.22,101h-1l-.86-2.26H99.91l-.8,2.26h-1l3.08-8h1ZM103,97.89l-1.26-3.43a3.25,3.25,0,0,1-.12-.54h0a4.32,4.32,0,0,1-.13.54l-1.26,3.43Z" transform="translate(-1.61 -13.44)"/>
      </g>
    </g>
  </g>
</svg>
