<?xml version="1.0" standalone="no"?>
<!DOCTYPE svg PUBLIC "-//W3C//DTD SVG 20010904//EN"
 "http://www.w3.org/TR/2001/REC-SVG-20010904/DTD/svg10.dtd">
<svg version="1.0" xmlns="http://www.w3.org/2000/svg"
 width="512.000000pt" height="512.000000pt" viewBox="0 0 512.000000 512.000000"
 preserveAspectRatio="xMidYMid meet">
<metadata>
Created by potrace 1.15, written by Peter Selinger 2001-2017
</metadata>
<g transform="translate(0.000000,512.000000) scale(0.100000,-0.100000)"
fill="#000000" stroke="none">
<path d="M883 4606 c-181 -44 -334 -202 -372 -384 -16 -75 -16 -3259 0 -3334
39 -187 200 -348 387 -387 75 -16 3259 -16 3334 0 187 39 348 200 387 387 16
75 16 3259 0 3334 -39 187 -200 348 -387 387 -81 17 -3279 14 -3349 -3z m1766
-1301 c89 -21 129 -43 147 -78 14 -26 15 -68 9 -321 -7 -263 -6 -295 10 -334
41 -100 107 -78 223 72 69 90 182 289 247 436 46 105 64 134 87 146 24 12 76
14 308 12 249 -3 281 -5 297 -20 57 -58 -34 -231 -304 -581 -123 -158 -143
-193 -143 -248 0 -58 13 -75 179 -235 242 -232 334 -382 270 -440 -19 -18 -42
-19 -291 -22 -359 -4 -330 -14 -518 179 -80 82 -158 158 -175 169 -45 30 -100
26 -135 -8 -34 -34 -48 -82 -56 -182 -7 -102 -11 -116 -36 -140 -20 -18 -35
-20 -179 -20 -267 0 -432 49 -609 180 -220 163 -492 549 -736 1044 -101 205
-118 248 -110 279 10 43 44 48 299 45 l237 -3 24 -25 c13 -14 40 -63 61 -110
93 -215 247 -473 324 -543 50 -45 83 -55 116 -33 67 44 98 382 49 533 -23 71
-71 126 -124 142 -40 12 -41 13 -25 31 22 24 104 59 179 75 85 19 295 18 375
0z"/>
</g>
</svg>
